<svg width="42" height="42" viewBox="0 0 42 42" fill="none" xmlns="http://www.w3.org/2000/svg">
<circle cx="21" cy="21" r="21" fill="#F7F6F4"/>
<path d="M20.9998 29.225C20.1714 29.225 19.4998 28.5534 19.4998 27.725V14.5C19.4998 13.6716 20.1714 13 20.9998 13C21.8283 13 22.4998 13.6716 22.4998 14.5V27.725C22.4998 28.5534 21.8283 29.225 20.9998 29.225ZM14.42 22.34C13.6358 22.34 13 21.7042 13 20.92C13 20.1358 13.6358 19.5 14.42 19.5H27.08C27.8642 19.5 28.5 20.1358 28.5 20.92C28.5 21.7042 27.8642 22.34 27.08 22.34H14.42Z" fill="#0A5E8D"/>
</svg>
