<svg width="499" height="520" viewBox="0 0 499 520" fill="none" xmlns="http://www.w3.org/2000/svg">
<rect width="499" height="520" rx="60" fill="white"/>
<g clip-path="url(#clip0_2170_7123)">
<path d="M202.219 360.438C279.107 360.438 341.438 298.107 341.438 221.219C341.438 144.33 279.107 82 202.219 82C125.33 82 63 144.33 63 221.219C63 298.107 125.33 360.438 202.219 360.438Z" fill="#FF7D00"/>
<path d="M168.154 239.784C167.984 238.733 167.898 237.719 167.898 236.745C167.898 235.77 167.898 234.749 167.898 233.682C167.772 228.548 168.712 223.444 170.66 218.693C172.359 214.683 174.712 210.982 177.621 207.741C180.407 204.715 183.519 202.007 186.902 199.666C190.181 197.361 193.275 195.041 196.183 192.705C198.778 190.624 201.115 188.241 203.144 185.605C205.018 183.072 205.99 179.984 205.905 176.834C205.955 174.663 205.458 172.513 204.461 170.584C203.463 168.654 201.997 167.005 200.197 165.79C196.376 163.036 190.46 161.659 182.447 161.659C178.631 161.616 174.835 162.212 171.216 163.423C167.937 164.545 164.768 165.966 161.75 167.669C159.062 169.179 156.494 170.893 154.069 172.797C151.826 174.576 149.854 176.053 148.153 177.229L135.414 160.731C138.61 157.279 142.218 154.232 146.157 151.659C150.15 149.042 154.413 146.864 158.872 145.162C163.345 143.452 167.967 142.163 172.678 141.31C177.272 140.474 181.931 140.047 186.6 140.034C200.924 140.034 212.062 143.027 220.013 149.014C223.827 151.755 226.909 155.392 228.988 159.604C231.068 163.815 232.081 168.473 231.939 173.168C232.128 178.877 231.083 184.56 228.876 189.828C227.04 194.001 224.461 197.807 221.266 201.058C218.129 204.094 214.702 206.814 211.033 209.179C207.513 211.474 204.157 214.01 200.986 216.767C197.908 219.425 195.276 222.558 193.19 226.048C190.935 230.215 189.845 234.912 190.034 239.645L168.154 239.784ZM164.209 267.791C164.108 265.761 164.443 263.733 165.192 261.844C165.94 259.955 167.085 258.248 168.548 256.839C171.689 254.053 175.794 252.605 179.987 252.801C184.306 252.562 188.549 254.01 191.821 256.839C193.283 258.249 194.427 259.956 195.175 261.845C195.924 263.734 196.259 265.761 196.16 267.791C196.247 269.825 195.905 271.856 195.158 273.75C194.411 275.645 193.274 277.361 191.821 278.789C188.577 281.675 184.323 283.16 179.987 282.919C177.903 283.016 175.819 282.702 173.856 281.993C171.894 281.284 170.09 280.196 168.548 278.789C167.1 277.359 165.967 275.642 165.224 273.748C164.48 271.853 164.142 269.824 164.232 267.791H164.209Z" fill="white"/>
</g>
<path d="M61 321.938C69.802 321.938 76.9375 314.802 76.9375 306C76.9375 297.198 69.802 290.062 61 290.062C52.198 290.062 45.0625 297.198 45.0625 306C45.0625 314.802 52.198 321.938 61 321.938Z" fill="#EBD624"/>
<path d="M59.7011 309.238C59.6816 309.118 59.6719 309.002 59.6719 308.89C59.6719 308.779 59.6719 308.662 59.6719 308.539C59.6574 307.952 59.7651 307.367 59.988 306.824C60.1826 306.364 60.4518 305.941 60.7848 305.57C61.1038 305.223 61.4601 304.913 61.8473 304.645C62.2228 304.382 62.5769 304.116 62.9098 303.849C63.2069 303.61 63.4744 303.337 63.7067 303.036C63.9213 302.746 64.0325 302.392 64.0228 302.032C64.0285 301.783 63.9716 301.537 63.8575 301.316C63.7433 301.095 63.5755 300.906 63.3694 300.767C62.932 300.452 62.2546 300.294 61.3373 300.294C60.9005 300.289 60.466 300.358 60.0517 300.496C59.6763 300.625 59.3135 300.787 58.968 300.982C58.6603 301.155 58.3663 301.352 58.0888 301.569C57.832 301.773 57.6062 301.942 57.4114 302.077L55.9531 300.188C56.319 299.793 56.732 299.444 57.183 299.15C57.64 298.85 58.1281 298.601 58.6386 298.406C59.1506 298.21 59.6797 298.063 60.2191 297.965C60.7449 297.869 61.2783 297.82 61.8128 297.819C63.4526 297.819 64.7276 298.162 65.6378 298.847C66.0744 299.161 66.4273 299.577 66.6653 300.059C66.9034 300.541 67.0194 301.075 67.0031 301.612C67.0247 302.266 66.9051 302.916 66.6525 303.519C66.4423 303.997 66.1471 304.433 65.7812 304.805C65.4222 305.152 65.0298 305.464 64.6098 305.734C64.2069 305.997 63.8226 306.287 63.4597 306.603C63.1074 306.907 62.806 307.266 62.5672 307.666C62.3091 308.143 62.1843 308.68 62.2059 309.222L59.7011 309.238ZM59.2495 312.444C59.238 312.212 59.2763 311.98 59.362 311.763C59.4477 311.547 59.5787 311.352 59.7462 311.19C60.1058 310.872 60.5757 310.706 61.0558 310.728C61.5502 310.701 62.0359 310.867 62.4105 311.19C62.5779 311.352 62.7088 311.547 62.7945 311.764C62.8802 311.98 62.9186 312.212 62.9072 312.444C62.9171 312.677 62.8781 312.91 62.7925 313.126C62.7069 313.343 62.5768 313.54 62.4105 313.703C62.0391 314.034 61.5521 314.204 61.0558 314.176C60.8171 314.187 60.5786 314.151 60.3539 314.07C60.1292 313.989 59.9227 313.864 59.7462 313.703C59.5804 313.54 59.4508 313.343 59.3657 313.126C59.2806 312.909 59.2419 312.677 59.2522 312.444H59.2495Z" fill="white"/>
<path d="M327.5 206.594C372.287 206.594 408.594 170.287 408.594 125.5C408.594 80.7132 372.287 44.4062 327.5 44.4062C282.713 44.4062 246.406 80.7132 246.406 125.5C246.406 170.287 282.713 206.594 327.5 206.594Z" fill="#FF0000"/>
<path d="M320.891 141.976C320.792 141.363 320.742 140.773 320.742 140.205C320.742 139.638 320.742 139.043 320.742 138.421C320.669 135.431 321.216 132.458 322.351 129.69C323.341 127.354 324.711 125.199 326.405 123.311C328.028 121.548 329.841 119.971 331.811 118.607C333.722 117.265 335.524 115.913 337.218 114.553C338.729 113.34 340.09 111.952 341.272 110.417C342.364 108.941 342.93 107.143 342.881 105.308C342.91 104.043 342.62 102.791 342.039 101.667C341.458 100.543 340.605 99.5826 339.556 98.8744C337.33 97.2706 333.884 96.4686 329.216 96.4686C326.994 96.4432 324.783 96.7904 322.675 97.4958C320.765 98.1493 318.919 98.9773 317.161 99.9692C315.595 100.849 314.099 101.847 312.687 102.956C311.38 103.992 310.232 104.853 309.24 105.538L301.82 95.928C303.682 93.9168 305.784 92.1419 308.078 90.6434C310.404 89.1193 312.887 87.8505 315.485 86.859C318.09 85.8632 320.782 85.1121 323.526 84.6154C326.202 84.1281 328.916 83.8794 331.636 83.8721C339.979 83.8721 346.467 85.6156 351.098 89.1026C353.32 90.6996 355.115 92.8178 356.327 95.2711C357.538 97.7244 358.128 100.438 358.045 103.172C358.155 106.498 357.547 109.808 356.261 112.877C355.192 115.308 353.69 117.524 351.828 119.418C350.001 121.186 348.005 122.771 345.868 124.149C343.818 125.485 341.862 126.962 340.015 128.568C338.223 130.116 336.69 131.941 335.474 133.974C334.161 136.401 333.526 139.137 333.636 141.895L320.891 141.976ZM318.593 158.289C318.534 157.107 318.729 155.926 319.165 154.825C319.601 153.725 320.268 152.731 321.121 151.91C322.95 150.287 325.341 149.443 327.784 149.558C330.299 149.419 332.771 150.262 334.677 151.91C335.529 152.731 336.195 153.726 336.631 154.826C337.067 155.926 337.262 157.107 337.204 158.289C337.255 159.474 337.056 160.657 336.621 161.761C336.185 162.864 335.523 163.864 334.677 164.696C332.787 166.377 330.309 167.242 327.784 167.101C326.57 167.158 325.356 166.975 324.213 166.562C323.069 166.149 322.019 165.515 321.121 164.696C320.277 163.863 319.617 162.863 319.184 161.759C318.751 160.655 318.554 159.473 318.607 158.289H318.593Z" fill="white"/>
<path d="M389 334.062C429.904 334.062 463.062 300.904 463.062 260C463.062 219.096 429.904 185.938 389 185.938C348.096 185.938 314.938 219.096 314.938 260C314.938 300.904 348.096 334.062 389 334.062Z" fill="#2ACC4B"/>
<path d="M382.964 275.047C382.873 274.488 382.828 273.949 382.828 273.43C382.828 272.912 382.828 272.369 382.828 271.801C382.761 269.07 383.261 266.355 384.297 263.827C385.201 261.694 386.453 259.725 388 258.001C389.482 256.391 391.138 254.95 392.938 253.705C394.682 252.479 396.328 251.244 397.875 250.002C399.256 248.895 400.499 247.627 401.578 246.225C402.575 244.877 403.092 243.234 403.047 241.559C403.074 240.403 402.809 239.26 402.279 238.233C401.748 237.207 400.968 236.33 400.011 235.683C397.978 234.218 394.83 233.486 390.568 233.486C388.538 233.463 386.518 233.78 384.593 234.424C382.849 235.021 381.163 235.777 379.557 236.683C378.127 237.486 376.761 238.398 375.471 239.411C374.278 240.357 373.229 241.143 372.324 241.768L365.547 232.992C367.247 231.155 369.166 229.534 371.262 228.166C373.386 226.774 375.654 225.615 378.026 224.709C380.406 223.8 382.864 223.114 385.371 222.66C387.815 222.215 390.293 221.988 392.777 221.981C400.397 221.981 406.322 223.574 410.552 226.758C412.581 228.217 414.221 230.152 415.327 232.392C416.433 234.633 416.972 237.111 416.897 239.608C416.997 242.645 416.442 245.668 415.268 248.471C414.291 250.691 412.919 252.716 411.219 254.446C409.55 256.06 407.727 257.507 405.775 258.766C403.903 259.987 402.117 261.335 400.43 262.802C398.793 264.216 397.393 265.883 396.283 267.74C395.083 269.956 394.503 272.455 394.604 274.973L382.964 275.047ZM380.865 289.946C380.812 288.866 380.99 287.788 381.388 286.783C381.786 285.778 382.395 284.87 383.174 284.12C384.845 282.638 387.028 281.867 389.259 281.972C391.557 281.845 393.814 282.615 395.555 284.12C396.332 284.87 396.941 285.778 397.339 286.783C397.737 287.788 397.916 288.867 397.863 289.946C397.909 291.029 397.727 292.109 397.33 293.117C396.932 294.125 396.327 295.038 395.555 295.797C393.829 297.333 391.566 298.123 389.259 297.994C388.15 298.046 387.042 297.879 385.998 297.502C384.953 297.125 383.994 296.545 383.174 295.797C382.403 295.037 381.801 294.123 381.405 293.115C381.01 292.107 380.83 291.028 380.878 289.946H380.865Z" fill="white"/>
<path d="M127 122.312C149.264 122.312 167.312 104.264 167.312 82C167.312 59.736 149.264 41.6875 127 41.6875C104.736 41.6875 86.6875 59.736 86.6875 82C86.6875 104.264 104.736 122.312 127 122.312Z" fill="#7EB0CB"/>
<path d="M123.715 90.1901C123.665 89.8855 123.641 89.5921 123.641 89.3099C123.641 89.0277 123.641 88.7321 123.641 88.423C123.604 86.9365 123.876 85.4586 124.44 84.0827C124.932 82.9216 125.613 81.85 126.456 80.9115C127.263 80.0352 128.164 79.2511 129.143 78.5733C130.093 77.9059 130.989 77.2341 131.831 76.5577C132.582 75.9551 133.259 75.2649 133.846 74.5018C134.389 73.7683 134.671 72.8742 134.646 71.9621C134.66 71.3333 134.516 70.7109 134.228 70.1521C133.939 69.5933 133.514 69.116 132.993 68.764C131.887 67.9667 130.173 67.568 127.853 67.568C126.748 67.5554 125.649 67.728 124.601 68.0787C123.652 68.4035 122.734 68.8151 121.86 69.3082C121.082 69.7453 120.338 70.2417 119.636 70.793C118.987 71.3081 118.416 71.7359 117.923 72.0763L114.234 67.2993C115.16 66.2995 116.205 65.4172 117.345 64.6722C118.501 63.9146 119.736 63.2839 121.027 62.791C122.322 62.2959 123.66 61.9226 125.025 61.6757C126.355 61.4335 127.704 61.3098 129.056 61.3062C133.204 61.3062 136.429 62.1729 138.731 63.9063C139.835 64.7002 140.728 65.7532 141.33 66.9727C141.932 68.1923 142.226 69.541 142.184 70.9005C142.239 72.5536 141.937 74.199 141.298 75.7246C140.766 76.933 140.019 78.0348 139.094 78.9765C138.185 79.8554 137.193 80.6431 136.131 81.328C135.112 81.9926 134.14 82.7266 133.222 83.5251C132.33 84.2946 131.568 85.2019 130.964 86.2126C130.311 87.419 129.996 88.7791 130.05 90.1497L123.715 90.1901ZM122.572 98.2996C122.543 97.7119 122.64 97.1248 122.857 96.5778C123.074 96.0308 123.405 95.5365 123.829 95.1283C124.738 94.3218 125.927 93.9023 127.141 93.9593C128.392 93.89 129.62 94.3092 130.568 95.1283C130.991 95.5368 131.322 96.0311 131.539 96.578C131.756 97.125 131.853 97.712 131.824 98.2996C131.849 98.8888 131.75 99.4767 131.534 100.025C131.318 100.574 130.988 101.071 130.568 101.484C129.628 102.32 128.396 102.75 127.141 102.68C126.537 102.708 125.934 102.617 125.366 102.412C124.797 102.207 124.275 101.892 123.829 101.484C123.409 101.07 123.081 100.573 122.866 100.025C122.651 99.4759 122.553 98.8883 122.579 98.2996H122.572Z" fill="white"/>
<path d="M114 420.688C141.442 420.688 163.688 398.442 163.688 371C163.688 343.558 141.442 321.312 114 321.312C86.5584 321.312 64.3125 343.558 64.3125 371C64.3125 398.442 86.5584 420.688 114 420.688Z" fill="#8359D8"/>
<path d="M109.95 381.095C109.89 380.719 109.859 380.358 109.859 380.01C109.859 379.662 109.859 379.298 109.859 378.917C109.814 377.085 110.15 375.263 110.845 373.567C111.452 372.136 112.291 370.815 113.329 369.658C114.324 368.578 115.435 367.612 116.642 366.776C117.812 365.954 118.916 365.126 119.954 364.292C120.88 363.549 121.714 362.699 122.439 361.758C123.107 360.854 123.454 359.752 123.424 358.628C123.442 357.853 123.264 357.086 122.909 356.397C122.553 355.708 122.029 355.12 121.387 354.686C120.023 353.703 117.912 353.212 115.052 353.212C113.69 353.196 112.335 353.409 111.044 353.841C109.873 354.242 108.742 354.749 107.665 355.357C106.706 355.895 105.789 356.507 104.924 357.187C104.123 357.822 103.419 358.349 102.812 358.768L98.2656 352.881C99.4062 351.648 100.694 350.561 102.1 349.643C103.525 348.709 105.046 347.931 106.638 347.324C108.234 346.714 109.884 346.253 111.565 345.949C113.205 345.651 114.868 345.498 116.534 345.494C121.646 345.494 125.621 346.562 128.459 348.698C129.82 349.677 130.92 350.975 131.663 352.478C132.405 353.981 132.766 355.644 132.716 357.319C132.783 359.357 132.41 361.385 131.623 363.265C130.967 364.755 130.047 366.113 128.906 367.273C127.787 368.357 126.564 369.328 125.254 370.172C123.998 370.991 122.8 371.896 121.668 372.88C120.57 373.828 119.631 374.947 118.886 376.192C118.081 377.679 117.692 379.356 117.76 381.045L109.95 381.095ZM108.543 391.09C108.507 390.366 108.626 389.642 108.893 388.968C109.16 388.294 109.569 387.685 110.091 387.181C111.212 386.187 112.677 385.67 114.174 385.741C115.715 385.655 117.23 386.172 118.397 387.181C118.919 387.685 119.327 388.294 119.595 388.968C119.862 389.642 119.981 390.366 119.946 391.09C119.977 391.816 119.855 392.541 119.588 393.217C119.322 393.893 118.916 394.506 118.397 395.016C117.24 396.046 115.721 396.576 114.174 396.49C113.43 396.524 112.686 396.412 111.986 396.159C111.285 395.906 110.641 395.518 110.091 395.016C109.574 394.505 109.17 393.892 108.905 393.216C108.639 392.54 108.519 391.816 108.551 391.09H108.543Z" fill="white"/>
<path d="M198.5 453.031C214.81 453.031 228.031 439.81 228.031 423.5C228.031 407.19 214.81 393.969 198.5 393.969C182.19 393.969 168.969 407.19 168.969 423.5C168.969 439.81 182.19 453.031 198.5 453.031Z" fill="#53A06E"/>
<path d="M196.093 429.5C196.057 429.277 196.039 429.062 196.039 428.855C196.039 428.648 196.039 428.432 196.039 428.206C196.012 427.117 196.212 426.034 196.625 425.026C196.985 424.175 197.484 423.39 198.101 422.703C198.692 422.061 199.353 421.487 200.07 420.99C200.766 420.501 201.422 420.009 202.039 419.513C202.589 419.072 203.085 418.566 203.515 418.007C203.913 417.47 204.119 416.815 204.101 416.147C204.112 415.686 204.006 415.23 203.795 414.821C203.583 414.412 203.272 414.062 202.89 413.804C202.08 413.22 200.825 412.928 199.125 412.928C198.316 412.919 197.51 413.045 196.743 413.302C196.047 413.54 195.375 413.842 194.735 414.203C194.165 414.523 193.62 414.887 193.106 415.291C192.63 415.668 192.211 415.981 191.851 416.231L189.148 412.731C189.826 411.999 190.592 411.352 191.427 410.807C192.274 410.252 193.178 409.79 194.124 409.429C195.073 409.066 196.054 408.792 197.053 408.612C198.027 408.434 199.016 408.343 200.006 408.341C203.045 408.341 205.407 408.976 207.094 410.246C207.903 410.827 208.556 411.599 208.998 412.492C209.439 413.385 209.654 414.373 209.623 415.369C209.663 416.58 209.442 417.786 208.974 418.903C208.584 419.788 208.037 420.596 207.359 421.285C206.694 421.929 205.967 422.506 205.189 423.008C204.442 423.495 203.73 424.033 203.058 424.617C202.405 425.181 201.846 425.846 201.404 426.586C200.926 427.47 200.694 428.466 200.735 429.47L196.093 429.5ZM195.256 435.441C195.235 435.01 195.306 434.58 195.465 434.179C195.624 433.779 195.866 433.417 196.177 433.118C196.843 432.527 197.714 432.219 198.603 432.261C199.519 432.21 200.419 432.517 201.114 433.118C201.424 433.417 201.666 433.779 201.825 434.18C201.984 434.58 202.055 435.01 202.034 435.441C202.052 435.872 201.98 436.303 201.821 436.705C201.663 437.107 201.422 437.471 201.114 437.774C200.425 438.386 199.523 438.701 198.603 438.65C198.161 438.67 197.719 438.604 197.303 438.453C196.887 438.303 196.504 438.072 196.177 437.774C195.87 437.47 195.629 437.106 195.472 436.704C195.314 436.302 195.242 435.872 195.261 435.441H195.256Z" fill="white"/>
<path d="M325.5 455.031C366.662 455.031 400.031 421.662 400.031 380.5C400.031 339.338 366.662 305.969 325.5 305.969C284.338 305.969 250.969 339.338 250.969 380.5C250.969 421.662 284.338 455.031 325.5 455.031Z" fill="#0A5E8D"/>
<path d="M319.426 395.642C319.335 395.079 319.289 394.537 319.289 394.015C319.289 393.493 319.289 392.947 319.289 392.375C319.222 389.627 319.725 386.895 320.767 384.351C321.677 382.204 322.936 380.223 324.494 378.488C325.985 376.868 327.652 375.418 329.463 374.165C331.218 372.931 332.874 371.689 334.431 370.438C335.82 369.324 337.071 368.048 338.158 366.637C339.161 365.281 339.682 363.628 339.636 361.942C339.663 360.779 339.397 359.629 338.863 358.595C338.329 357.562 337.544 356.68 336.58 356.029C334.535 354.555 331.367 353.818 327.078 353.818C325.035 353.795 323.003 354.114 321.065 354.762C319.31 355.363 317.613 356.124 315.997 357.035C314.558 357.843 313.184 358.761 311.886 359.78C310.685 360.733 309.629 361.524 308.718 362.153L301.898 353.321C303.609 351.473 305.541 349.841 307.65 348.464C309.787 347.063 312.069 345.897 314.457 344.986C316.851 344.071 319.326 343.38 321.848 342.924C324.307 342.476 326.801 342.247 329.301 342.241C336.97 342.241 342.932 343.843 347.189 347.048C349.23 348.516 350.88 350.463 351.994 352.717C353.107 354.972 353.65 357.466 353.573 359.979C353.674 363.035 353.115 366.078 351.934 368.898C350.951 371.132 349.57 373.169 347.859 374.91C346.18 376.535 344.345 377.992 342.381 379.258C340.497 380.487 338.7 381.844 337.003 383.32C335.355 384.743 333.946 386.42 332.829 388.289C331.622 390.519 331.038 393.034 331.14 395.568L319.426 395.642ZM317.314 410.636C317.26 409.549 317.439 408.464 317.84 407.452C318.241 406.441 318.853 405.527 319.637 404.772C321.318 403.281 323.516 402.506 325.761 402.611C328.073 402.483 330.344 403.258 332.096 404.772C332.879 405.528 333.491 406.441 333.892 407.453C334.292 408.464 334.472 409.549 334.419 410.636C334.465 411.725 334.283 412.812 333.883 413.826C333.482 414.84 332.874 415.759 332.096 416.524C330.359 418.069 328.082 418.864 325.761 418.735C324.645 418.787 323.53 418.618 322.479 418.239C321.428 417.86 320.462 417.277 319.637 416.524C318.861 415.758 318.255 414.839 317.857 413.825C317.459 412.81 317.278 411.724 317.326 410.636H317.314Z" fill="white"/>
<defs>
<clipPath id="clip0_2170_7123">
<rect width="297" height="297" fill="white" transform="translate(31 63)"/>
</clipPath>
</defs>
</svg>
